<svg id="Layer_1" data-name="Layer 1" xmlns="http://www.w3.org/2000/svg" viewBox="0 0 250.93 45.9"><defs><style>.cls-1{fill:#fd0}</style></defs><title>5star</title><path class="cls-1" d="M26.28 1.44l5.41 11a2.58 2.58 0 0 0 1.94 1.41l12.09 1.76a2.58 2.58 0 0 1 1.44 4.34l-8.75 8.53a2.58 2.58 0 0 0-.74 2.28l2.06 12A2.58 2.58 0 0 1 36 45.54l-10.83-5.68a2.58 2.58 0 0 0-2.4 0L12 45.54a2.58 2.58 0 0 1-3.75-2.72l2.06-12a2.58 2.58 0 0 0-.74-2.28L.78 19.95a2.58 2.58 0 0 1 1.43-4.4L14.3 13.8a2.58 2.58 0 0 0 1.94-1.41l5.41-11a2.58 2.58 0 0 1 4.63 0zm50.72 0l5.41 11a2.58 2.58 0 0 0 1.94 1.41l12.09 1.76A2.58 2.58 0 0 1 97.87 20l-8.75 8.53a2.58 2.58 0 0 0-.74 2.28l2.06 12a2.58 2.58 0 0 1-3.75 2.72l-10.77-5.67a2.58 2.58 0 0 0-2.4 0L62.7 45.54a2.58 2.58 0 0 1-3.7-2.72l2.06-12a2.58 2.58 0 0 0-.74-2.28l-8.79-8.59A2.58 2.58 0 0 1 53 15.56l12.09-1.76A2.58 2.58 0 0 0 67 12.39l5.41-11a2.58 2.58 0 0 1 4.59 0zm50.78 0l5.41 11a2.58 2.58 0 0 0 1.94 1.41l12.09 1.76a2.58 2.58 0 0 1 1.43 4.4l-8.75 8.53a2.58 2.58 0 0 0-.74 2.28l2.06 12a2.58 2.58 0 0 1-3.75 2.72l-10.81-5.69a2.58 2.58 0 0 0-2.4 0l-10.81 5.69a2.58 2.58 0 0 1-3.75-2.72l2.06-12a2.58 2.58 0 0 0-.74-2.28l-8.74-8.59a2.58 2.58 0 0 1 1.43-4.4l12.09-1.76a2.58 2.58 0 0 0 1.94-1.41l5.41-11a2.58 2.58 0 0 1 4.63.06zm50.75 0l5.41 11a2.58 2.58 0 0 0 1.94 1.41L198 15.56a2.58 2.58 0 0 1 1.43 4.4l-8.75 8.53a2.58 2.58 0 0 0-.74 2.28l2.06 12a2.58 2.58 0 0 1-3.75 2.72l-10.81-5.69a2.58 2.58 0 0 0-2.4 0l-10.84 5.74a2.58 2.58 0 0 1-3.75-2.72l2.06-12a2.58 2.58 0 0 0-.74-2.28L153 19.95a2.58 2.58 0 0 1 1.43-4.4l12.09-1.76a2.58 2.58 0 0 0 1.94-1.41l5.41-11a2.58 2.58 0 0 1 4.66.06zm50.75 0l5.41 11a2.58 2.58 0 0 0 1.94 1.41l12.09 1.76a2.58 2.58 0 0 1 1.43 4.4l-8.75 8.53a2.58 2.58 0 0 0-.74 2.28l2.06 12a2.58 2.58 0 0 1-3.72 2.72l-10.81-5.69a2.58 2.58 0 0 0-2.4 0L215 45.54a2.58 2.58 0 0 1-3.75-2.72l2.06-12a2.58 2.58 0 0 0-.74-2.28l-8.79-8.59a2.58 2.58 0 0 1 1.43-4.4l12.09-1.76a2.58 2.58 0 0 0 1.94-1.41l5.41-11a2.58 2.58 0 0 1 4.63.06z" transform="translate(0 .06)"/></svg>